
<svg width="800" height="500" viewBox="0 0 800 500" fill="none" xmlns="http://www.w3.org/2000/svg">
  <!-- Background -->
  <rect width="800" height="500" rx="8" fill="white"/>
  
  <!-- Header -->
  <rect y="0" width="800" height="60" fill="#F5F9FF"/>
  <rect x="20" y="20" width="120" height="20" rx="4" fill="#1E88E5"/>
  <rect x="660" y="20" width="40" height="20" rx="10" fill="#E3F2FD"/>
  <rect x="710" y="20" width="40" height="20" rx="10" fill="#E3F2FD"/>
  <rect x="760" y="20" width="20" height="20" rx="10" fill="#1E88E5"/>

  <!-- Left Sidebar -->
  <rect x="0" y="60" width="200" height="440" fill="#F5F9FF"/>
  <rect x="20" y="80" width="160" height="40" rx="4" fill="#E3F2FD"/>
  <rect x="20" y="140" width="160" height="10" rx="2" fill="#BBDEFB"/>
  <rect x="20" y="160" width="160" height="10" rx="2" fill="#BBDEFB"/>
  <rect x="20" y="180" width="160" height="10" rx="2" fill="#BBDEFB"/>
  <rect x="20" y="200" width="160" height="10" rx="2" fill="#BBDEFB"/>
  <rect x="20" y="240" width="160" height="10" rx="2" fill="#BBDEFB"/>
  <rect x="20" y="260" width="160" height="10" rx="2" fill="#BBDEFB"/>
  <rect x="20" y="280" width="160" height="10" rx="2" fill="#BBDEFB"/>
  <rect x="20" y="320" width="160" height="40" rx="4" fill="#E3F2FD"/>

  <!-- Main Content -->
  <rect x="220" y="80" width="560" height="60" rx="8" fill="#E3F2FD"/>
  <rect x="240" y="100" width="200" height="20" rx="4" fill="#1E88E5"/>
  <rect x="660" y="100" width="100" height="20" rx="4" fill="#42A5F5"/>
  
  <!-- Stats Cards -->
  <rect x="220" y="160" width="270" height="120" rx="8" fill="white" stroke="#E0E0E0" stroke-width="1"/>
  <rect x="240" y="180" width="120" height="10" rx="2" fill="#E0E0E0"/>
  <rect x="240" y="200" width="80" height="20" rx="4" fill="#1E88E5"/>
  <rect x="240" y="230" width="230" height="10" rx="2" fill="#F5F5F5"/>
  <rect x="240" y="250" width="180" height="10" rx="2" fill="#F5F5F5"/>

  <rect x="510" y="160" width="270" height="120" rx="8" fill="white" stroke="#E0E0E0" stroke-width="1"/>
  <rect x="530" y="180" width="120" height="10" rx="2" fill="#E0E0E0"/>
  <rect x="530" y="200" width="80" height="20" rx="4" fill="#4CAF50"/>
  <rect x="530" y="230" width="230" height="10" rx="2" fill="#F5F5F5"/>
  <rect x="530" y="250" width="180" height="10" rx="2" fill="#F5F5F5"/>

  <!-- Calendar/Appointments -->
  <rect x="220" y="300" width="360" height="180" rx="8" fill="white" stroke="#E0E0E0" stroke-width="1"/>
  <rect x="240" y="320" width="120" height="10" rx="2" fill="#E0E0E0"/>
  <rect x="240" y="340" width="320" height="1" fill="#E0E0E0"/>
  
  <!-- Calendar Grid -->
  <rect x="240" y="350" width="45" height="40" rx="4" fill="#F5F9FF"/>
  <rect x="295" y="350" width="45" height="40" rx="4" fill="#F5F9FF"/>
  <rect x="350" y="350" width="45" height="40" rx="4" fill="#F5F9FF"/>
  <rect x="405" y="350" width="45" height="40" rx="4" fill="#E3F2FD"/>
  <rect x="460" y="350" width="45" height="40" rx="4" fill="#F5F9FF"/>
  
  <rect x="240" y="400" width="45" height="40" rx="4" fill="#F5F9FF"/>
  <rect x="295" y="400" width="45" height="40" rx="4" fill="#F5F9FF"/>
  <rect x="350" y="400" width="45" height="40" rx="4" fill="#1E88E5"/>
  <rect x="405" y="400" width="45" height="40" rx="4" fill="#F5F9FF"/>
  <rect x="460" y="400" width="45" height="40" rx="4" fill="#F5F9FF"/>

  <!-- Activity Panel -->
  <rect x="600" y="300" width="180" height="180" rx="8" fill="white" stroke="#E0E0E0" stroke-width="1"/>
  <rect x="620" y="320" width="100" height="10" rx="2" fill="#E0E0E0"/>
  <rect x="620" y="340" width="140" height="1" fill="#E0E0E0"/>
  
  <rect x="620" y="360" width="140" height="30" rx="4" fill="#F5F9FF"/>
  <rect x="620" y="400" width="140" height="30" rx="4" fill="#F5F9FF"/>
  <rect x="620" y="440" width="140" height="30" rx="4" fill="#F5F9FF"/>
</svg>
